<?xml version="1.0" standalone="no"?>
<!DOCTYPE svg PUBLIC "-//W3C//DTD SVG 20010904//EN"
 "http://www.w3.org/TR/2001/REC-SVG-20010904/DTD/svg10.dtd">
<svg version="1.0" xmlns="http://www.w3.org/2000/svg"
 width="500.000000pt" height="500.000000pt" viewBox="0 0 500.000000 500.000000"
 preserveAspectRatio="xMidYMid meet">

<g transform="translate(0.000000,500.000000) scale(0.100000,-0.100000)"
fill="#000000" stroke="none">
<path d="M2280 4970 c-41 -5 -97 -11 -125 -14 -27 -3 -61 -9 -75 -12 -14 -3
-49 -10 -77 -14 -29 -5 -67 -15 -85 -23 -18 -8 -69 -22 -113 -32 -44 -10 -84
-22 -89 -27 -6 -4 -17 -8 -26 -8 -20 0 -70 -23 -70 -32 0 -4 -7 -4 -17 -1 -11
5 -14 3 -9 -6 6 -9 1 -12 -15 -10 -26 3 -152 -55 -142 -65 4 -3 2 -7 -3 -7 -5
-1 -22 -3 -37 -5 -63 -7 -346 -187 -442 -280 -32 -32 -67 -59 -78 -59 -22 -2
-90 -67 -169 -163 -33 -40 -63 -70 -68 -67 -9 6 -70 -67 -93 -111 -9 -17 -23
-34 -31 -37 -21 -8 -175 -244 -240 -367 -108 -206 -199 -474 -243 -715 -25
-140 -27 -169 -27 -435 -1 -252 2 -300 22 -414 24 -140 69 -325 82 -341 4 -5
11 -26 15 -45 4 -19 10 -39 14 -45 4 -5 13 -30 21 -55 21 -70 152 -335 213
-433 165 -260 391 -500 672 -712 244 -184 643 -353 1003 -425 85 -16 825 -13
892 4 30 8 58 12 62 10 12 -7 208 43 329 85 132 45 329 138 326 153 -3 14 133
88 149 81 28 -10 334 221 334 253 0 7 12 16 28 22 58 20 345 342 391 438 11
22 27 46 36 54 9 7 26 32 37 54 12 23 41 75 66 116 118 193 220 487 274 792
19 107 22 160 23 398 0 244 -3 291 -24 415 -13 77 -29 155 -37 174 -8 18 -11
37 -8 42 3 5 0 9 -6 9 -6 0 -10 6 -9 13 2 6 -3 30 -10 52 -7 22 -19 65 -27 95
-37 137 -181 432 -287 589 -139 206 -370 457 -548 592 -228 176 -538 338 -784
412 -167 50 -239 67 -405 93 -113 18 -464 26 -570 14z m525 -460 c193 -32 353
-75 480 -130 130 -55 152 -66 174 -82 13 -10 28 -18 34 -18 10 0 151 -85 174
-105 6 -5 28 -21 48 -35 161 -110 376 -326 475 -475 8 -13 36 -54 61 -91 84
-124 192 -353 238 -504 68 -224 94 -405 94 -650 1 -218 -25 -380 -94 -610 -27
-88 -87 -243 -109 -280 -5 -8 -28 -50 -50 -93 -111 -216 -318 -461 -527 -628
-130 -104 -194 -149 -210 -149 -6 0 -15 -6 -21 -13 -6 -6 -41 -27 -79 -46 -37
-19 -75 -40 -83 -46 -8 -7 -24 -15 -35 -18 -11 -3 -57 -21 -103 -40 -46 -20
-97 -39 -115 -43 -18 -3 -44 -12 -58 -20 -85 -43 -378 -84 -609 -84 -258 0
-444 27 -635 93 -163 55 -179 62 -305 122 -41 19 -180 99 -234 135 -96 63
-266 208 -340 289 -17 19 -46 50 -65 70 -56 61 -202 263 -224 311 -4 8 -19 33
-32 55 -14 22 -33 56 -41 75 -9 19 -24 53 -33 75 -10 22 -26 57 -35 77 -44 99
-100 302 -125 453 -47 288 -31 649 40 875 11 36 29 94 40 130 19 62 114 284
130 305 4 6 22 37 39 70 18 33 38 66 44 74 5 7 15 21 21 31 21 36 51 77 109
150 206 259 494 484 771 605 22 10 58 26 80 36 22 10 54 21 70 25 17 4 48 15
70 25 60 26 192 57 355 83 215 35 384 34 615 -4z m-2170 -389 c-3 -6 -11 -11
-17 -11 -6 0 -6 6 2 15 14 17 26 13 15 -4z"/>
<path d="M1985 3643 c-31 -8 -84 -51 -100 -83 -19 -37 -19 -103 0 -139 17 -34
70 -81 91 -81 11 0 14 -17 14 -75 0 -72 -1 -76 -27 -86 -14 -5 -40 -23 -56
-39 -26 -25 -31 -39 -34 -87 -4 -68 7 -94 60 -137 31 -25 48 -31 94 -33 l56
-2 128 -128 c121 -123 127 -131 127 -171 1 -82 47 -132 130 -140 74 -7 116 11
149 63 l28 44 77 1 c75 0 78 -1 92 -27 8 -16 26 -39 41 -53 23 -22 36 -25 100
-25 64 0 77 3 100 25 39 36 55 73 55 123 0 78 -79 157 -157 157 -41 0 -104
-40 -132 -83 l-24 -37 -73 0 -73 0 -28 40 c-31 44 -93 80 -140 80 -17 0 -47
-11 -67 -25 -20 -14 -38 -25 -40 -25 -2 0 -56 51 -120 114 -104 102 -116 117
-107 135 6 11 16 23 21 26 6 3 10 31 10 61 0 45 -5 62 -27 91 -15 20 -42 42
-60 50 l-33 13 0 74 c0 70 1 74 24 80 14 3 41 26 60 50 31 37 36 51 36 93 0
40 -6 59 -30 91 -16 23 -37 45 -47 50 -24 13 -93 21 -118 15z"/>
<path d="M2422 3629 c-49 -24 -70 -52 -82 -104 -12 -54 6 -114 46 -152 33 -31
40 -33 102 -33 73 1 86 7 132 65 38 47 40 103 7 157 -49 81 -127 107 -205 67z"/>
<path d="M2915 3643 c-35 -9 -87 -55 -101 -90 -8 -19 -14 -55 -13 -79 l3 -45
-125 -124 c-118 -118 -126 -124 -154 -116 -62 16 -157 -28 -178 -83 -14 -36
-10 -124 7 -148 25 -35 96 -78 129 -78 17 0 49 9 72 20 79 38 113 119 81 194
l-16 39 37 41 c20 22 72 76 115 119 76 74 80 77 101 62 25 -17 128 -21 158 -4
11 5 33 28 49 51 23 32 30 52 30 88 0 36 -7 56 -30 88 -16 23 -38 46 -48 51
-25 13 -91 21 -117 14z"/>
<path d="M2909 3188 c-20 -5 -52 -25 -70 -44 -32 -33 -34 -39 -34 -104 0 -63
3 -72 30 -100 81 -85 178 -80 245 12 65 89 22 208 -85 237 -22 6 -42 10 -45
10 -3 -1 -21 -5 -41 -11z"/>
<path d="M1942 2720 c-63 -45 -75 -70 -70 -141 4 -53 9 -64 40 -96 31 -31 45
-37 91 -41 75 -6 116 10 151 59 41 58 41 125 0 176 -62 77 -142 94 -212 43z"/>
<path d="M3304 2172 c-44 -28 -129 -121 -147 -159 -5 -13 -14 -23 -19 -23 -4
0 -8 -5 -8 -11 0 -6 -8 -23 -19 -37 -34 -49 -142 -271 -181 -372 -8 -19 -23
-48 -34 -65 -31 -45 -135 -141 -185 -171 -43 -26 -45 -26 -58 -8 -8 11 -11 30
-8 49 10 50 74 172 119 228 23 29 51 67 62 85 26 45 12 52 -98 52 -51 0 -88 4
-88 10 0 5 14 32 30 58 30 49 38 82 21 82 -28 0 -84 -36 -124 -80 -51 -56 -57
-76 -30 -95 16 -12 16 -15 2 -32 -8 -10 -20 -29 -27 -43 -17 -36 -33 -59 -69
-104 -18 -22 -33 -46 -33 -53 0 -24 25 -13 50 23 14 19 30 41 35 47 6 7 27 37
48 68 58 87 64 90 122 75 70 -17 69 -36 -2 -122 -95 -116 -107 -138 -107 -216
-1 -42 4 -62 17 -75 25 -25 96 -22 135 5 16 12 34 22 39 22 5 0 39 29 75 65
l65 65 0 -57 c0 -51 3 -59 32 -85 41 -37 96 -38 160 -3 60 33 211 186 211 215
0 18 -3 19 -20 10 -11 -6 -20 -15 -20 -20 0 -27 -203 -190 -236 -190 -31 0
-54 41 -54 95 0 63 16 89 101 165 110 99 193 185 277 290 83 102 84 104 123
176 40 73 44 105 19 137 -19 24 -29 27 -78 27 -45 0 -65 -6 -98 -28z m142 -25
c5 -14 -41 -123 -57 -132 -5 -4 -18 -23 -28 -44 -11 -21 -35 -56 -53 -78 -18
-23 -58 -72 -88 -110 -30 -37 -77 -91 -105 -119 -49 -49 -113 -98 -104 -79 3
6 13 28 23 50 53 123 156 303 213 374 95 118 183 179 199 138z"/>
<path d="M2100 2166 c-160 -41 -286 -124 -301 -197 -19 -88 44 -149 201 -194
47 -14 126 -44 196 -76 23 -11 46 -19 51 -19 5 0 20 -12 34 -27 18 -21 24 -39
24 -76 0 -26 -5 -51 -11 -55 -6 -4 -16 -17 -23 -29 -6 -13 -17 -23 -23 -23 -6
0 -19 -6 -27 -14 -20 -16 -78 -47 -151 -79 -90 -40 -188 -61 -300 -64 -94 -3
-109 -1 -145 19 -76 44 -71 130 12 211 58 57 119 89 198 106 84 18 87 20 79
32 -14 23 -203 -21 -245 -57 -8 -8 -20 -14 -26 -14 -17 0 -119 -106 -136 -143
-10 -20 -17 -59 -17 -91 0 -59 10 -76 65 -112 38 -25 215 -31 310 -11 78 16
219 74 310 126 74 43 171 141 180 182 25 113 -47 190 -245 265 -36 13 -74 28
-85 33 -11 5 -45 19 -75 31 -71 29 -80 37 -80 71 0 24 9 35 53 63 74 47 131
70 222 91 101 23 180 23 223 1 42 -22 42 -54 1 -101 -33 -37 -34 -51 -2 -41
38 12 68 67 68 125 0 51 -2 54 -35 72 -49 27 -187 24 -300 -5z"/>
</g>
</svg>
